HIERARCHY
ROOT mixamorig:Hips
{
	OFFSET 0.000000 93.996948 0.000004
	CHANNELS 6 Xposition Yposition Zposition Xrotation Yrotation Zrotation
	JOINT mixamorig:Spine
	{
		OFFSET 0.000000 12.994652 -0.000000
		CHANNELS 6 Xposition Yposition Zposition Xrotation Yrotation Zrotation
		JOINT mixamorig:Spine1
		{
			OFFSET 0.000000 12.666664 0.000001
			CHANNELS 6 Xposition Yposition Zposition Xrotation Yrotation Zrotation
			JOINT mixamorig:Spine2
			{
				OFFSET -0.000000 12.666656 0.000001
				CHANNELS 6 Xposition Yposition Zposition Xrotation Yrotation Zrotation
				JOINT mixamorig:LeftShoulder
				{
					OFFSET 6.999992 10.364258 1.903785
					CHANNELS 6 Xposition Yposition Zposition Xrotation Yrotation Zrotation
					JOINT mixamorig:LeftArm
					{
						OFFSET 13.607773 0.000000 0.000001
						CHANNELS 3 Xrotation Yrotation Zrotation
						JOINT mixamorig:LeftForeArm
						{
							OFFSET 27.102146 -0.000031 0.000078
							CHANNELS 6 Xposition Yposition Zposition Xrotation Yrotation Zrotation
							JOINT mixamorig:LeftHand
							{
								OFFSET 28.226727 -0.000046 0.000120
								CHANNELS 6 Xposition Yposition Zposition Xrotation Yrotation Zrotation
								JOINT mixamorig:LeftHandIndex1
								{
									OFFSET 8.050400 -0.094543 2.543380
									CHANNELS 6 Xposition Yposition Zposition Xrotation Yrotation Zrotation
									JOINT mixamorig:LeftHandIndex2
									{
										OFFSET 4.499985 0.000000 0.000008
										CHANNELS 3 Xrotation Yrotation Zrotation
										JOINT mixamorig:LeftHandIndex3
										{
											OFFSET 2.768486 -0.000015 -0.000012
											CHANNELS 6 Xposition Yposition Zposition Xrotation Yrotation Zrotation
											End Site
											{
												OFFSET 2.768494 0.000061 -0.000035
											}
										}
									}
								}
								JOINT mixamorig:LeftHandMiddle1
								{
									OFFSET 8.205635 -0.094559 0.544589
									CHANNELS 6 Xposition Yposition Zposition Xrotation Yrotation Zrotation
									JOINT mixamorig:LeftHandMiddle2
									{
										OFFSET 4.699982 0.000031 0.000007
										CHANNELS 3 Xrotation Yrotation Zrotation
										JOINT mixamorig:LeftHandMiddle3
										{
											OFFSET 3.099998 0.000000 -0.000003
											CHANNELS 6 Xposition Yposition Zposition Xrotation Yrotation Zrotation
											End Site
											{
												OFFSET 3.099991 0.000015 0.000005
											}
										}
									}
								}
								JOINT mixamorig:LeftHandPinky1
								{
									OFFSET 7.021164 -0.094574 -3.111078
									CHANNELS 6 Xposition Yposition Zposition Xrotation Yrotation Zrotation
									JOINT mixamorig:LeftHandPinky2
									{
										OFFSET 3.499992 -0.000015 -0.000003
										CHANNELS 6 Xposition Yposition Zposition Xrotation Yrotation Zrotation
										JOINT mixamorig:LeftHandPinky3
										{
											OFFSET 2.199982 0.000015 0.000009
											CHANNELS 3 Xrotation Yrotation Zrotation
											End Site
											{
												OFFSET 2.199989 0.000000 0.000013
											}
										}
									}
								}
								JOINT mixamorig:LeftHandRing1
								{
									OFFSET 7.772285 -0.094604 -1.421571
									CHANNELS 6 Xposition Yposition Zposition Xrotation Yrotation Zrotation
									JOINT mixamorig:LeftHandRing2
									{
										OFFSET 4.300003 0.000000 0.000006
										CHANNELS 3 Xrotation Yrotation Zrotation
										JOINT mixamorig:LeftHandRing3
										{
											OFFSET 2.773186 -0.000015 0.000001
											CHANNELS 6 Xposition Yposition Zposition Xrotation Yrotation Zrotation
											End Site
											{
												OFFSET 2.773193 0.000046 0.000004
											}
										}
									}
								}
								JOINT mixamorig:LeftHandThumb1
								{
									OFFSET 2.151253 -0.094543 2.784745
									CHANNELS 6 Xposition Yposition Zposition Xrotation Yrotation Zrotation
									JOINT mixamorig:LeftHandThumb2
									{
										OFFSET 3.454651 -0.000015 1.994560
										CHANNELS 6 Xposition Yposition Zposition Xrotation Yrotation Zrotation
										JOINT mixamorig:LeftHandThumb3
										{
											OFFSET 3.027802 -0.000046 0.000018
											CHANNELS 3 Xrotation Yrotation Zrotation
											End Site
											{
												OFFSET 3.027802 -0.000046 0.000012
											}
										}
									}
								}
							}
						}
					}
				}
				JOINT mixamorig:Neck
				{
					OFFSET -0.000013 18.093918 -0.000010
					CHANNELS 6 Xposition Yposition Zposition Xrotation Yrotation Zrotation
					JOINT mixamorig:Head
					{
						OFFSET 0.000000 11.149841 0.000000
						CHANNELS 3 Xrotation Yrotation Zrotation
						End Site
						{
							OFFSET 0.000000 11.149841 0.000000
						}
					}
				}
				JOINT mixamorig:RightShoulder
				{
					OFFSET -7.000004 10.364258 1.903772
					CHANNELS 6 Xposition Yposition Zposition Xrotation Yrotation Zrotation
					JOINT mixamorig:RightArm
					{
						OFFSET -13.607773 -0.000015 0.000001
						CHANNELS 3 Xrotation Yrotation Zrotation
						JOINT mixamorig:RightForeArm
						{
							OFFSET -27.102154 -0.000046 -0.000013
							CHANNELS 6 Xposition Yposition Zposition Xrotation Yrotation Zrotation
							JOINT mixamorig:RightHand
							{
								OFFSET -28.299980 -0.000061 -0.000095
								CHANNELS 6 Xposition Yposition Zposition Xrotation Yrotation Zrotation
								JOINT mixamorig:RightHandIndex1
								{
									OFFSET -7.977158 -0.094589 2.543477
									CHANNELS 6 Xposition Yposition Zposition Xrotation Yrotation Zrotation
									JOINT mixamorig:RightHandIndex2
									{
										OFFSET -4.499977 0.000015 -0.000009
										CHANNELS 6 Xposition Yposition Zposition Xrotation Yrotation Zrotation
										JOINT mixamorig:RightHandIndex3
										{
											OFFSET -2.768494 -0.000015 -0.000003
											CHANNELS 6 Xposition Yposition Zposition Xrotation Yrotation Zrotation
											End Site
											{
												OFFSET -2.768494 0.000031 0.000018
											}
										}
									}
								}
								JOINT mixamorig:RightHandMiddle1
								{
									OFFSET -8.132370 -0.094589 0.544699
									CHANNELS 6 Xposition Yposition Zposition Xrotation Yrotation Zrotation
									JOINT mixamorig:RightHandMiddle2
									{
										OFFSET -4.699997 0.000015 -0.000005
										CHANNELS 6 Xposition Yposition Zposition Xrotation Yrotation Zrotation
										JOINT mixamorig:RightHandMiddle3
										{
											OFFSET -3.099991 -0.000015 -0.000005
											CHANNELS 6 Xposition Yposition Zposition Xrotation Yrotation Zrotation
											End Site
											{
												OFFSET -3.099991 0.000000 0.000004
											}
										}
									}
								}
								JOINT mixamorig:RightHandPinky1
								{
									OFFSET -6.947868 -0.094559 -3.110968
									CHANNELS 6 Xposition Yposition Zposition Xrotation Yrotation Zrotation
									JOINT mixamorig:RightHandPinky2
									{
										OFFSET -3.499992 -0.000031 -0.000005
										CHANNELS 6 Xposition Yposition Zposition Xrotation Yrotation Zrotation
										JOINT mixamorig:RightHandPinky3
										{
											OFFSET -2.199989 0.000015 -0.000008
											CHANNELS 6 Xposition Yposition Zposition Xrotation Yrotation Zrotation
											End Site
											{
												OFFSET -2.199997 0.000046 0.000018
											}
										}
									}
								}
								JOINT mixamorig:RightHandRing1
								{
									OFFSET -7.699020 -0.094574 -1.421472
									CHANNELS 6 Xposition Yposition Zposition Xrotation Yrotation Zrotation
									JOINT mixamorig:RightHandRing2
									{
										OFFSET -4.300011 0.000000 -0.000002
										CHANNELS 6 Xposition Yposition Zposition Xrotation Yrotation Zrotation
										JOINT mixamorig:RightHandRing3
										{
											OFFSET -2.773163 -0.000015 -0.000007
											CHANNELS 6 Xposition Yposition Zposition Xrotation Yrotation Zrotation
											End Site
											{
												OFFSET -2.773163 0.000031 0.000001
											}
										}
									}
								}
								JOINT mixamorig:RightHandThumb1
								{
									OFFSET -2.077988 -0.094543 2.784874
									CHANNELS 6 Xposition Yposition Zposition Xrotation Yrotation Zrotation
									JOINT mixamorig:RightHandThumb2
									{
										OFFSET -3.454681 -0.000015 1.994533
										CHANNELS 3 Xrotation Yrotation Zrotation
										JOINT mixamorig:RightHandThumb3
										{
											OFFSET -3.027779 -0.000015 0.000008
											CHANNELS 3 Xrotation Yrotation Zrotation
											End Site
											{
												OFFSET -3.027786 0.000015 0.000006
											}
										}
									}
								}
							}
						}
					}
				}
			}
		}
	}
	JOINT mixamorig:LeftUpLeg
	{
		OFFSET 8.099949 0.000000 0.000000
		CHANNELS 6 Xposition Yposition Zposition Xrotation Yrotation Zrotation
		JOINT mixamorig:LeftLeg
		{
			OFFSET -0.000013 -43.199978 0.000038
			CHANNELS 6 Xposition Yposition Zposition Xrotation Yrotation Zrotation
			JOINT mixamorig:LeftFoot
			{
				OFFSET 0.062409 -43.299969 0.000052
				CHANNELS 3 Xrotation Yrotation Zrotation
				JOINT mixamorig:LeftToeBase
				{
					OFFSET -0.000006 -6.239403 13.169413
					CHANNELS 6 Xposition Yposition Zposition Xrotation Yrotation Zrotation
					End Site
					{
						OFFSET 0.000003 0.000088 14.572700
					}
				}
			}
		}
	}
	JOINT mixamorig:RightUpLeg
	{
		OFFSET -8.099949 0.000000 -0.000000
		CHANNELS 6 Xposition Yposition Zposition Xrotation Yrotation Zrotation
		JOINT mixamorig:RightLeg
		{
			OFFSET 0.000005 -43.200005 0.000037
			CHANNELS 6 Xposition Yposition Zposition Xrotation Yrotation Zrotation
			JOINT mixamorig:RightFoot
			{
				OFFSET -0.062555 -43.299992 0.000030
				CHANNELS 3 Xrotation Yrotation Zrotation
				JOINT mixamorig:RightToeBase
				{
					OFFSET -0.000008 -6.239427 13.169404
					CHANNELS 3 Xrotation Yrotation Zrotation
					End Site
					{
						OFFSET -0.000019 0.000005 14.572704
					}
				}
			}
		}
	}
}
MOTION
Frames: 4
Frame Time: 0.041667
-4.575189 78.779327 -68.518250 -8.571491 15.154404 10.610034 -0.000001 12.546082 0.000008 6.116811 -1.715704 -1.052207 -0.000004 12.308350 0.000002 6.136395 -1.721372 -1.055273 -0.000003 11.703338 0.000011 6.135243 -1.721033 -1.055091 6.667789 9.777281 0.000004 -9.722128 -0.910985 17.863718 -43.267326 -19.128703 -109.352975 23.150314 0.000018 0.000070 95.728120 -103.412964 75.970049 25.491974 0.000013 0.000007 41.917376 -15.829081 9.080209 7.221776 -0.092132 2.290845 1.790698 -4.912578 -85.564382 0.000025 -0.000148 -73.681458 2.520605 0.000027 -0.000011 0.000049 -0.000081 -49.510436 7.277740 -0.092149 0.487472 2.869413 8.504087 -93.758164 -0.000058 -0.000201 -81.358379 2.774215 0.000021 -0.000011 0.000053 -0.000189 -54.767343 6.277321 -0.092168 -2.805711 7.391267 25.534589 -93.720905 3.178912 0.000010 0.000017 -0.000270 -0.000406 -72.481831 0.000576 0.000261 -48.691565 6.982767 -0.092192 -1.288435 3.137444 16.551469 -98.968936 0.000050 -0.000147 -82.232964 2.533672 0.000013 0.000000 0.000215 -0.000001 -55.368160 1.859594 -0.083719 2.492229 62.694429 -40.336348 -5.432703 3.069000 -0.000002 1.771886 -2.869507 17.614836 -15.412146 3.918715 20.267512 -21.670935 -0.000013 17.137604 0.000002 8.219030 -21.260530 6.589133 8.219032 -21.260543 6.589136 -6.667799 9.777265 0.000002 -12.621707 -2.564920 -8.274144 -45.549080 26.409046 24.134000 -23.150339 0.000039 -0.000013 380.939895 51.122795 -395.388969 -25.491924 0.000004 -0.000085 -5.759110 16.407122 18.902700 -7.221780 -0.092169 2.290818 -2.660914 10.004996 81.103934 -4.097046 0.000026 0.000017 0.000063 0.000217 76.419066 -2.520599 0.000039 0.000002 0.000474 -0.000188 51.381730 -7.277761 -0.092167 0.487454 -1.443050 -6.171093 90.420257 -4.206049 0.000020 0.000010 -0.000018 0.000127 78.746549 -2.774242 -0.000016 -0.000000 0.000006 0.000097 52.975538 -6.277316 -0.092181 -2.805742 -2.034232 -32.024858 94.373366 -3.178890 -0.000018 -0.000001 0.000238 0.000011 62.202505 -1.998179 0.000042 0.000003 0.000552 -0.000249 41.700296 -6.982790 -0.092123 -1.288461 -2.429702 -19.188832 92.302289 -3.928630 -0.000001 -0.000002 -0.000114 -0.000142 81.468823 -2.533654 -0.000022 -0.000008 -0.000107 -0.000078 54.843226 -1.859604 -0.083686 2.492223 37.517095 28.726632 27.371194 -0.281587 5.271949 9.492396 1.138209 -11.271630 11.496338 7.671662 0.000002 0.000009 -13.458093 13.306361 15.762816 -0.000021 -40.915508 0.000015 55.782254 -0.728682 2.041283 -16.726536 -18.694977 -15.705270 -0.000021 -5.909501 12.473004 -16.382011 0.000039 0.000042 -7.671658 0.000007 -0.000002 -28.482536 -5.620593 -34.785542 -0.000006 -40.915512 0.000027 32.150202 0.348757 -1.175518 3.370087 7.210433 16.510657 -0.543343 0.000000 -0.000001 
-5.744643 78.674149 -66.984306 -9.330964 11.330833 12.330149 -0.000002 12.546082 0.000001 6.390622 -0.069136 -1.694340 -0.000001 12.308357 0.000004 6.412141 -0.069681 -1.700003 -0.000001 11.703338 0.000006 6.409917 -0.069626 -1.699415 6.667787 9.777275 0.000004 -8.567128 -0.921343 17.614885 -42.176835 -17.977080 -111.105301 23.150333 0.000019 0.000080 100.034281 -103.926027 80.137831 25.491982 0.000011 0.000012 43.597671 -14.357724 10.385241 7.221763 -0.092147 2.290837 1.777422 -4.878114 -85.632998 0.000029 -0.000126 -73.506653 2.520589 0.000010 -0.000003 0.000068 -0.000079 -49.391089 7.277746 -0.092150 0.487466 2.845685 8.326707 -93.880629 -0.000057 -0.000194 -81.031035 2.774230 0.000021 -0.000009 0.000046 -0.000188 -54.542575 6.277298 -0.092172 -2.805721 7.484631 25.633789 -93.856614 3.178931 0.000032 0.000009 -0.000270 -0.000129 -72.331198 0.000533 0.000446 -48.588764 6.982758 -0.092204 -1.288442 3.162449 16.502912 -99.041752 0.000054 0.000478 -82.136413 2.533684 0.000007 0.000003 0.000112 0.000421 -55.301839 1.859576 -0.083737 2.492226 62.739201 -40.562806 -4.884303 3.068994 -0.000021 1.771881 -2.716460 17.957821 -15.898061 4.026549 20.519874 -21.980367 -0.000016 17.137589 0.000003 9.450348 -21.245145 6.578540 9.450355 -21.245143 6.578544 -6.667800 9.777270 -0.000001 -14.471185 -2.248209 -7.045245 -38.350013 29.148187 22.094689 -23.150339 0.000012 -0.000018 370.686087 44.904881 -396.639385 -25.491947 -0.000005 -0.000080 0.708445 9.457677 27.803134 -7.221782 -0.092156 2.290813 -4.645242 4.628567 81.084625 -4.097046 0.000014 0.000004 0.000070 0.000223 73.431746 -2.520618 0.000025 0.000011 0.000465 -0.000195 49.339958 -7.277757 -0.092154 0.487451 -0.644589 -13.126970 90.969131 -4.206087 -0.000007 -0.000005 -0.000009 0.000137 75.672724 -2.774215 -0.000008 -0.000009 0.000006 0.000104 50.871211 -6.277314 -0.092162 -2.805736 -0.907798 -38.166899 97.050329 -3.178926 -0.000026 0.000008 0.000232 0.000040 58.407331 -1.998172 0.000038 0.000007 0.000529 -0.000236 39.129696 -6.982765 -0.092152 -1.288481 -0.885065 -25.055139 93.557056 -3.928643 -0.000016 0.000001 -0.000112 0.000114 79.154618 -2.533683 -0.000022 -0.000002 -0.000061 0.000096 53.255296 -1.859595 -0.083688 2.492226 31.357955 26.814240 32.913479 -0.347337 1.082777 11.244919 1.572577 -13.183233 13.546795 7.671664 -0.000000 -0.000006 -10.323683 15.140134 16.286801 -0.000017 -40.915504 0.000019 54.600901 -1.403237 0.808963 -14.524355 -20.333284 -16.585096 -0.000023 -5.909509 12.473000 -17.854029 0.000039 0.000044 -7.671661 -0.000001 -0.000000 -26.986603 0.376952 -33.353074 -0.000005 -40.915504 0.000026 36.103950 0.329689 -0.864785 -0.399987 4.647605 15.711049 -0.000009 0.000000 0.000001 
-6.688140 78.804955 -65.406258 -8.312996 12.698712 12.207008 -0.000002 12.546089 0.000011 6.390607 -0.670837 -1.414740 -0.000002 12.308365 -0.000004 6.411942 -0.673334 -1.419326 -0.000001 11.703338 0.000005 6.409882 -0.673092 -1.418880 6.667783 9.777267 0.000003 -8.468028 0.312905 17.517980 -41.121991 -17.444670 -111.786339 23.150307 0.000032 0.000079 96.057670 -104.749844 73.727692 25.491966 0.000008 0.000013 44.159816 -13.393947 12.284081 7.221761 -0.092137 2.290837 1.956153 -4.650243 -85.421453 0.000046 -0.000157 -74.519495 2.520573 0.000021 0.000003 0.000029 -0.000095 -50.082885 7.277755 -0.092138 0.487469 3.031489 8.432859 -93.793811 -0.000043 -0.000221 -81.625699 2.774218 0.000021 -0.000013 0.000053 -0.000204 -54.950931 6.277338 -0.092172 -2.805719 7.778690 25.884532 -93.874796 3.178928 0.000017 0.000002 -0.000268 -0.000273 -72.728517 0.000557 0.000359 -48.859885 6.982757 -0.092195 -1.288443 3.387246 16.695458 -99.038938 0.000059 -0.000622 -82.484158 2.533681 0.000013 0.000008 0.000284 -0.000324 -55.540807 1.859587 -0.083719 2.492235 62.979317 -40.954002 -4.587285 3.069002 -0.000013 1.771867 -2.815384 18.397420 -15.961758 4.092884 20.672978 -22.168946 -0.000013 17.137604 -0.000001 9.230747 -20.693137 6.818390 9.230745 -20.693137 6.818390 -6.667801 9.777297 0.000004 -13.321286 -4.993829 -5.781359 -47.081857 19.842212 30.418599 -23.150330 0.000002 -0.000003 412.730628 71.020252 -432.117355 -25.491951 -0.000006 -0.000091 3.949577 -6.727987 24.371488 -7.221782 -0.092150 2.290812 -2.042096 7.678931 79.138397 -4.097006 0.000036 0.000012 0.000055 0.000244 80.225455 -2.520607 -0.000001 0.000004 0.000500 -0.000150 53.989712 -7.277767 -0.092159 0.487452 -0.286877 -9.891873 90.040471 -4.206079 0.000021 0.000018 -0.000012 0.000138 79.959085 -2.774219 0.000030 0.000007 0.000005 0.000101 53.806956 -6.277331 -0.092167 -2.805732 -1.339108 -35.390755 96.452195 -3.178902 -0.000010 0.000015 0.000244 0.000024 60.033333 -1.998171 0.000019 0.000019 0.000535 -0.000242 40.230412 -6.982757 -0.092141 -1.288476 -0.768302 -24.258310 93.600776 -3.928628 -0.000022 -0.000005 -0.000112 -0.000053 79.595732 -2.533680 -0.000060 -0.000002 -0.000084 -0.000020 53.557730 -1.859602 -0.083672 2.492227 34.863861 26.764685 30.772195 -0.427861 3.890854 9.686083 1.243831 -11.768786 12.025237 7.671660 -0.000007 0.000009 -10.478111 13.446721 16.845765 -0.000014 -40.915504 0.000017 53.389229 -1.012455 0.534786 -12.961160 -21.792832 -17.261662 -0.000020 -5.909509 12.472999 -18.970005 0.000042 0.000049 -7.671665 -0.000010 0.000011 -26.987857 1.835661 -32.646481 -0.000010 -40.915501 0.000029 39.172252 0.694049 -0.406778 -3.763863 1.808108 15.235360 0.000002 -0.000000 -0.000001 
-7.454482 79.045326 -64.154167 -7.815018 18.435830 12.028158 -0.000004 12.546082 0.000005 6.166357 -2.559380 -1.108646 0.000001 12.308365 -0.000004 6.188190 -2.568649 -1.112078 -0.000002 11.703338 0.000005 6.184924 -2.567260 -1.111561 6.667785 9.777268 0.000017 -8.941577 1.001573 19.074215 -41.117083 -19.121912 -111.552227 23.150320 0.000016 0.000080 91.578241 -105.021460 68.479388 25.491987 0.000022 0.000023 41.701874 -13.800330 12.411893 7.221786 -0.092144 2.290822 2.276071 -3.992556 -85.205531 0.000037 -0.000146 -75.347334 2.520582 0.000034 -0.000014 0.000052 -0.000080 -50.648708 7.277763 -0.092162 0.487457 3.304181 8.714136 -93.690176 -0.000067 -0.000202 -82.252676 2.774208 0.000013 -0.000011 0.000044 -0.000189 -55.381670 6.277342 -0.092183 -2.805737 8.238853 26.353318 -93.979687 3.178917 0.000025 0.000014 -0.000269 -0.000194 -73.088529 0.000547 0.000400 -49.105621 6.982769 -0.092208 -1.288457 3.674713 16.949929 -99.044443 0.000059 -0.000292 -82.900711 2.533683 -0.000002 0.000008 0.000248 -0.000105 -55.827166 1.859593 -0.083737 2.492215 63.159429 -41.084312 -4.732857 3.068998 -0.000017 1.771868 -3.011648 18.506565 -15.655789 4.067230 20.613950 -22.096164 -0.000013 17.137589 0.000009 9.114995 -20.040815 7.430176 9.114991 -20.040810 7.430171 -6.667802 9.777267 0.000013 -9.439368 -5.971145 -6.701261 -47.948406 8.090660 32.256579 -23.150337 0.000014 0.000005 481.448451 66.394787 -495.811519 -25.491926 -0.000026 -0.000087 4.489033 -9.096294 22.099007 -7.221791 -0.092141 2.290810 -0.364587 9.023644 79.155711 -4.097056 0.000023 0.000012 0.000052 0.000238 81.150837 -2.520622 0.000007 0.000005 0.000502 -0.000139 54.624858 -7.277772 -0.092157 0.487449 -0.173792 -7.381736 89.855640 -4.206048 0.000024 0.000008 -0.000024 0.000118 81.533047 -2.774204 -0.000000 0.000009 0.000002 0.000087 54.887328 -6.277327 -0.092152 -2.805744 -1.383028 -33.312813 95.977955 -3.178925 -0.000025 0.000010 0.000242 -0.000001 60.954582 -1.998156 0.000069 0.000004 0.000539 -0.000267 40.854466 -6.982769 -0.092125 -1.288475 -1.111716 -22.237253 93.284722 -3.928636 0.000003 0.000002 -0.000115 0.000165 80.360119 -2.533645 -0.000015 -0.000005 -0.000048 0.000126 54.082117 -1.859599 -0.083686 2.492227 36.518146 26.475690 30.142380 -0.285482 6.956847 8.695334 0.977406 -10.464480 10.643509 7.671659 -0.000003 -0.000004 -12.367599 8.926270 16.400452 -0.000017 -40.915497 0.000013 53.161924 -0.114867 1.267821 -10.580768 -22.194508 -17.014616 -0.000019 -5.909514 12.472987 -20.581448 0.000049 0.000051 -7.671661 0.000001 0.000002 -26.943259 -1.566251 -34.114186 -0.000003 -40.915524 0.000026 40.904213 1.372503 0.170851 -6.543194 -0.893588 14.485011 0.000002 0.000000 -0.000000 
